<svg width="146" height="42" viewBox="0 0 146 42" fill="none" xmlns="http://www.w3.org/2000/svg">
<g clip-path="url(#clip0_3787_5696)">
<path d="M32.0864 30.0638C32.0422 29.8857 29.7031 22.9822 27.8494 17.5485C27.6728 16.9694 27.4522 16.3904 27.2756 15.856C26.7019 14.1635 25.6426 11.1794 25.3337 10.3332C23.3034 4.67677 26.9225 7.34909 28.0259 8.72979C29.35 10.5113 30.5416 13.05 29.6589 14.2526C31.0271 12.7383 30.8947 11.1794 30.7182 10.4668V10.4223V10.3777C30.674 10.2886 30.6299 10.155 30.6299 10.066C30.6299 10.066 30.674 10.1105 30.674 10.2441C28.5555 3.65238 13.9026 -6.41337 17.301 5.523C18.1837 8.64071 19.4636 12.2483 20.9201 16.6577C21.4056 18.1275 21.847 19.5527 22.3324 20.9334C23.8772 25.699 25.2013 29.6184 25.4661 30.4201C25.8191 31.4445 26.437 33.1815 25.4219 34.0723C32.2188 35.8539 32.3512 31.6227 32.0864 30.0638Z" fill="url(#paint0_radial_3787_5696)"/>
<path d="M30.5856 10.1094C30.5856 10.1094 33.1454 15.6322 21.935 17.6364C14.9616 18.8835 8.34133 19.997 5.73734 20.4424C3.35403 20.8432 -0.220938 22.4911 -0.000261051 25.787C0.176281 29.6173 -0.0885321 32.5569 2.73614 33.7594C1.41207 32.3787 0.794177 28.0585 6.53178 26.8559C17.1684 23.8273 34.6902 21.2886 30.5856 10.1094Z" fill="url(#paint1_linear_3787_5696)"/>
<path d="M32.0863 30.0638C32.3512 31.8899 32.1746 37.0564 22.1117 33.0925C20.3904 32.4244 12.3137 29.1285 6.7526 26.8125C6.70847 26.8125 6.6202 26.857 6.57606 26.857C0.79432 28.0596 1.45635 32.3798 2.73628 33.7605C2.95696 33.8942 3.22177 33.9832 3.44245 34.1168C4.58997 34.4732 20.5229 41.4212 23.171 41.8666C31.7774 43.2473 33.4545 34.7404 32.0863 30.0638Z" fill="url(#paint2_linear_3787_5696)"/>
<path d="M51.9915 13.9844H50.7557C50.4467 13.9844 50.2261 14.2071 50.2261 14.5188V21.066C50.2261 23.7383 48.24 25.6981 45.5477 25.6981H40.1632C39.8984 25.6981 39.6335 25.9207 39.6335 26.2325V27.4796C39.6335 27.7468 39.8542 28.0141 40.1632 28.0141H45.5477C49.4757 28.0141 52.5211 24.9854 52.5211 21.1106V14.5188C52.477 14.2516 52.2563 13.9844 51.9915 13.9844Z" fill="#EDEDED"/>
<path d="M111.265 13.9844H110.03C109.765 13.9844 109.5 14.2071 109.5 14.5188V27.4796C109.5 27.7468 109.721 28.0141 110.03 28.0141H111.265C111.53 28.0141 111.795 27.7914 111.795 27.4796V14.5188C111.795 14.2516 111.574 13.9844 111.265 13.9844Z" fill="#EDEDED"/>
<path d="M98.9516 13.9844C98.8633 13.9844 98.8192 13.9844 98.7309 13.9844H92.3313C92.0664 13.9844 91.8016 14.2071 91.8016 14.5188V27.4796C91.8016 27.7468 92.0223 28.0141 92.3313 28.0141H93.5671C93.8319 28.0141 94.0967 27.7914 94.0967 27.4796V16.3004H95.0677C96.5241 16.3004 98.7309 16.3004 98.775 16.3004C98.9516 16.3004 99.084 16.3004 99.2605 16.3449C100.982 16.5231 102.527 17.6811 103.144 19.329C103.365 19.8635 103.453 20.4425 103.453 21.0215C103.453 21.1106 103.453 26.5888 103.453 27.5241C103.453 27.7914 103.674 28.0141 103.983 28.0141H105.219C105.484 28.0141 105.748 27.7914 105.748 27.4796V20.977C105.748 20.1307 105.572 19.329 105.307 18.5273C104.248 15.855 101.776 14.0735 98.9516 13.9844Z" fill="#EDEDED"/>
<path d="M84.5192 19.8619H79.0023C77.8107 19.8619 77.0604 19.1493 77.0604 18.0804C77.0604 17.0114 77.8548 16.2988 79.0023 16.2988H87.1232C87.388 16.2543 87.5646 16.0761 87.5646 15.8089V14.5173C87.5646 14.25 87.2998 14.0273 87.035 14.0273H78.7375C76.3983 14.0273 74.7212 15.7198 74.7212 18.0804C74.7212 19.0157 74.986 19.9065 75.5156 20.5745C76.2659 21.5989 77.4134 22.1334 78.7816 22.1334H84.2986C85.4902 22.1334 86.2405 22.846 86.2405 23.9149C86.2405 24.9839 85.4461 25.6965 84.2986 25.6965H76.3983C76.1335 25.6965 75.9128 25.9192 75.9128 26.231V27.478C75.9128 27.7453 76.1335 28.0125 76.4425 28.0125H84.5634C86.9026 28.0125 88.5797 26.32 88.5797 23.9595C88.5797 23.0242 88.3149 22.1334 87.7853 21.4653C87.035 20.3964 85.8874 19.8619 84.5192 19.8619Z" fill="#EDEDED"/>
<path d="M128.655 13.9844H115.811C115.547 13.9844 115.282 14.2071 115.282 14.5188V15.7659C115.282 16.0777 115.502 16.3004 115.811 16.3004H121.108V27.4796C121.108 27.7468 121.328 28.0141 121.637 28.0141H122.873C123.138 28.0141 123.403 27.7914 123.403 27.4796V16.3004H128.699C128.964 16.3004 129.229 16.0777 129.229 15.7659V14.5188C129.184 14.2516 128.92 13.9844 128.655 13.9844Z" fill="#EDEDED"/>
<path d="M64.5259 14.0289L63.7756 13.9844H63.7315L62.9371 14.0289C61.0834 14.2071 59.3621 15.0978 58.0822 16.5231C56.8022 17.9483 56.0961 19.7744 56.0961 21.6896V24.0501C56.405 23.1593 57.6849 21.9123 58.3028 21.6005L58.347 21.556V21.4669C58.5235 18.3046 61.0834 16.3004 63.6874 16.3004H63.7315C66.6886 16.3004 69.0719 18.75 69.0719 21.6896V21.7341H61.1716C58.3911 21.7341 56.0961 24.0056 56.0961 26.8561V27.4796C56.0961 27.7468 56.3167 28.0141 56.6257 28.0141H57.8615C58.1263 28.0141 58.3911 27.7914 58.3911 27.4796V26.8561C58.3911 25.2972 59.671 24.0056 61.2158 24.0056H69.116V27.4796C69.116 27.7468 69.3808 27.9695 69.6456 27.9695H70.8814C71.1462 27.9695 71.4111 27.7468 71.4111 27.4351V21.645C71.4111 19.7299 70.7049 17.9038 69.425 16.4785C68.145 15.1424 66.4238 14.2516 64.5259 14.0289Z" fill="#EDEDED"/>
<path d="M137.614 14.0289L138.365 13.9844H138.409L139.203 14.0289C141.057 14.2071 142.778 15.0978 144.058 16.5231C145.338 17.9483 146.044 19.7744 146.044 21.6896V24.0501C145.735 23.1593 144.455 21.9123 143.837 21.6005L143.793 21.556V21.4669C143.617 18.3046 141.057 16.3004 138.453 16.3004H138.409C135.452 16.3004 133.068 18.75 133.068 21.6896V21.7341H140.969C143.749 21.7341 146.044 24.0056 146.044 26.8561V27.4796C146.044 27.7468 145.823 28.0141 145.515 28.0141H144.279C144.014 28.0141 143.749 27.7914 143.749 27.4796V26.8561C143.749 25.2972 142.469 24.0056 140.924 24.0056H133.024V27.4796C133.024 27.7468 132.759 27.9695 132.495 27.9695H131.259C130.994 27.9695 130.729 27.7468 130.729 27.4351V21.645C130.729 19.7299 131.435 17.9038 132.715 16.4785C133.995 15.1424 135.716 14.2516 137.614 14.0289Z" fill="#EDEDED"/>
</g>
<defs>
<radialGradient id="paint0_radial_3787_5696" cx="0" cy="0" r="1" gradientUnits="userSpaceOnUse" gradientTransform="translate(7.7507 -6.0842) rotate(-16.5999) scale(34.7888 71.4212)">
<stop offset="0.2676" stop-color="#E6E7E8"/>
<stop offset="0.3477" stop-color="#E2E3E4"/>
<stop offset="0.452" stop-color="#D4D5D7"/>
<stop offset="0.569" stop-color="#BEC0C2"/>
<stop offset="0.6662" stop-color="#A7A9AC"/>
<stop offset="0.9113" stop-color="#A7A9AC"/>
</radialGradient>
<linearGradient id="paint1_linear_3787_5696" x1="36.4266" y1="19.418" x2="-0.371842" y2="24.0246" gradientUnits="userSpaceOnUse">
<stop stop-color="#F1F2F2"/>
<stop offset="0.3378" stop-color="#E6E7E8"/>
<stop offset="0.6983" stop-color="#E6E7E8"/>
<stop offset="0.7617" stop-color="#E2E3E4"/>
<stop offset="0.8352" stop-color="#D7D8D9"/>
<stop offset="0.9139" stop-color="#C3C5C7"/>
<stop offset="0.9956" stop-color="#A9ABAD"/>
<stop offset="1" stop-color="#A7A9AC"/>
</linearGradient>
<linearGradient id="paint2_linear_3787_5696" x1="0.892125" y1="34.4033" x2="32.5178" y2="34.4033" gradientUnits="userSpaceOnUse">
<stop stop-color="#A7A9AC"/>
<stop offset="0.2112" stop-color="#AAACAF"/>
<stop offset="0.4234" stop-color="#B4B6B8"/>
<stop offset="0.6361" stop-color="#C5C7C9"/>
<stop offset="0.848" stop-color="#DCDDDF"/>
<stop offset="1" stop-color="#F1F2F2"/>
</linearGradient>
<clipPath id="clip0_3787_5696">
<rect width="146" height="42" fill="white"/>
</clipPath>
</defs>
</svg>
